<svg xmlns="http://www.w3.org/2000/svg" viewBox="0 0 120 120" fill="currentColor" role="img" aria-label="CD">
  <circle cx="60.0" cy="60.0" r="58" fill="none" stroke="currentColor" stroke-width="0.9" opacity=".45"/>
  <circle cx="60.0" cy="60.0" r="55" fill="none" stroke="currentColor" stroke-width="0.4" opacity=".3"/>
  <path d="M116.0 60.0L113.2 59.8L105.3 60.7L93.2 63.4L78.6 68.4L63.3 75.5L49.2 83.8L37.7 92.3L30.0 99.4L26.4 103.8L26.5 104.1L29.5 99.8L34.3 90.8L39.5 77.8L43.9 62.2L46.8 45.6L47.9 30.0L47.5 17.3L46.3 9.0L45.3 6.0L45.7 8.3L48.5 15.4L54.1 26.2L62.5 38.9L73.2 51.8L84.9 63.4L96.2 72.4L105.3 78.3L110.8 80.9L111.5 80.8L107.0 79.1L97.4 76.9L83.8 75.2L67.6 74.9L50.8 76.3L35.3 79.2L22.9 83.0L14.8 86.4L11.8 88.3L13.5 87.5L19.4 83.3L28.2 75.4L38.2 64.1L47.9 50.5L56.2 36.1L62.1 22.7L65.5 12.1L66.8 5.8L66.6 4.7L66.1 9.1L66.4 18.6L68.2 31.9L72.0 47.5L77.7 63.4L84.5 77.8L91.4 89.1L97.0 96.3L99.9 99.1L99.0 97.8L93.7 93.4L84.1 87.2L70.8 80.5L55.3 74.5L39.2 70.2L24.5 67.8L13.0 67.2L6.2 67.7L4.7 68.1L8.7 67.6L17.5 65.0L29.7 60.0L43.7 52.4L57.6 42.8L69.9 32.5L79.2 22.7L85.0 15.2L87.2 11.3L86.4 12.1L83.7 18.0L80.2 28.6L77.1 42.9L75.3 59.4L75.2 76.2L76.7 91.2L79.1 102.7L81.4 109.6L82.4 111.3L81.0 107.9L76.5 100.4L68.7 90.1L57.9 78.6L45.1 67.6L31.8 58.3L19.8 51.6L10.8 47.8L6.1 46.6L6.6 47.0L12.6 48.1L23.4 48.8L37.8 48.1L54.2 45.6L70.4 41.4L84.7 36.1L95.5 30.7L101.9 26.6L103.6 24.9L101.1 26.8L95.2 32.8L87.4 42.8L79.1 56.1L71.7 71.2L66.1 86.5L62.7 100.0L61.3 110.1L61.2 115.4L61.5 115.2L61.1 109.5L59.0 99.2L54.8 85.6L48.3 70.6L40.0 55.9L31.1 43.3L23.0 34.0L17.0 28.6L14.7 27.1L16.8 28.9L23.8 32.8L35.2 37.7L49.9 42.3L66.4 45.6L82.8 47.1L97.0 47.0L107.4 45.7L112.9 44.4L113.0 44.0L108.1 45.7L98.9 50.2L87.1 57.6L74.3 67.7L62.2 79.4L52.1 91.4L45.0 101.9L41.1 109.3L40.1 112.3L41.2 110.2L43.1 102.8L44.9 90.9L45.6 75.6L44.5 58.9L41.8 42.6L38.0 28.7L34.1 18.6L31.2 13.2L30.6 12.9L33.2 16.9L39.6 24.4L49.7 33.7L62.6 43.5L77.0 52.2L91.3 58.9L103.5 63.2L112.1 65.2L115.7 65.5L113.8 65.0L106.5 65.0L94.8 66.3L80.1 69.5L64.2 74.7L49.1 81.5L36.4 88.9L27.4 95.5L22.6 99.9L22.1 100.9L25.1 97.6L30.5 89.8L36.9 77.9L43.0 63.1L47.7 46.9L50.6 31.2L51.7 18.0L51.4 8.9L50.7 4.9L50.7 6.5L52.4 13.1L56.5 23.8L63.3 37.1L72.4 51.0L82.8 64.0L93.3 74.5L102.2 81.8L108.0 85.4L109.5 85.9L105.9 84.0L97.3 80.9L84.5 77.8L68.7 75.7L51.8 75.3L35.8 76.5L22.5 78.9L13.5 81.6L9.4 83.4L10.5 83.2L16.2 80.1L25.2 73.5L36.1 63.7L47.3 51.5L57.2 38.0L64.8 25.0L69.6 14.2L71.8 7.3L72.0 5.4L71.2 8.9L70.4 17.6L70.7 30.6L72.7 46.2L76.5 62.6L81.8 77.9L87.6 90.4L92.7 98.8L95.7 102.6L95.6 101.9L91.4 97.5L83.0 90.6L70.9 82.7L56.3 75.1L40.7 68.9L26.0 64.8L14.1 62.8L6.4 62.4L4.1 62.7L7.3 62.7L15.6 61.3L27.7 57.8L42.2 51.9L57.1 44.0L70.6 35.0L81.4 26.0L88.4 18.7L91.6 14.5L91.2 14.5L88.2 19.3L83.8 28.9L79.3 42.3L75.7 58.3L73.8 75.0L73.5 90.5L74.7 102.8L76.3 110.7L77.3 113.3L76.6 110.6L73.3 103.3L67.0 92.6L57.7 80.3L46.3 67.9L34.0 57.1L22.4 48.8L13.3 43.7L8.0 41.5L7.7 41.8L12.7 43.3L22.7 45.1L36.7 46.0L53.0 45.4L69.7 43.0L84.8 39.3L96.7 34.9L104.2 31.2L106.8 29.3L104.8 30.5L98.8 35.3L90.3 43.9L80.9 55.8L71.9 70.0L64.5 84.8L59.4 98.3L56.6 108.8L55.8 114.8L56.1 115.4L56.3 110.6L55.5 100.8L52.9 87.3L48.2 71.8L41.6 56.3L34.1 42.5L26.7 31.8L20.9 25.2L18.2 22.9L19.5 24.3L25.3 28.6L35.5 34.5L49.3 40.5L65.3 45.6L81.5 49.0L96.1 50.5L107.3 50.5L113.7 49.7L114.7 49.2L110.3 50.1L101.4 53.2L89.2 59.1L75.6 67.5L62.2 77.9L50.7 88.8L42.1 98.9L36.9 106.4L35.2 110.0L36.1 108.8L38.6 102.4L41.6 91.3L43.9 76.6L44.7 60.0L43.9 43.4L41.6 28.7L38.6 17.6L36.1 11.2L35.2 10.0L36.9 13.6L42.1 21.1L50.7 31.2L62.2 42.1L75.6 52.5L89.2 60.9L101.4 66.8L110.3 69.9L114.7 70.8L113.7 70.3L107.3 69.5L96.1 69.5L81.5 71.0L65.3 74.4L49.3 79.5L35.5 85.5L25.3 91.4L19.5 95.7L18.2 97.1L20.9 94.8L26.7 88.2L34.1 77.5L41.6 63.7L48.2 48.2L52.9 32.7L55.5 19.2L56.3 9.4L56.1 4.6L55.8 5.2L56.6 11.2L59.4 21.7L64.5 35.2L71.9 50.0L80.9 64.2L90.3 76.1L98.8 84.7L104.8 89.5L106.8 90.7L104.2 88.8L96.7 85.1L84.8 80.7L69.7 77.0L53.0 74.6L36.7 74.0L22.7 74.9L12.7 76.7L7.7 78.2L8.0 78.5L13.3 76.3L22.4 71.2L34.0 62.9L46.3 52.1L57.7 39.7L67.0 27.4L73.3 16.7L76.6 9.4L77.3 6.7L76.3 9.3L74.7 17.2L73.5 29.5L73.8 45.0L75.7 61.7L79.3 77.7L83.8 91.1L88.2 100.7L91.2 105.5L91.6 105.5L88.4 101.3L81.4 94.0L70.6 85.0L57.1 76.0L42.2 68.1L27.7 62.2L15.6 58.7L7.3 57.3L4.1 57.3L6.4 57.6L14.1 57.2L26.0 55.2L40.7 51.1L56.3 44.9L70.9 37.3L83.0 29.4L91.4 22.5L95.6 18.1L95.7 17.4L92.7 21.2L87.6 29.6L81.8 42.1L76.5 57.4L72.7 73.8L70.7 89.4L70.4 102.4L71.2 111.1L72.0 114.6L71.8 112.7L69.6 105.8L64.8 95.0L57.2 82.0L47.3 68.5L36.1 56.3L25.2 46.5L16.2 39.9L10.5 36.8L9.4 36.6L13.5 38.4L22.5 41.1L35.8 43.5L51.8 44.7L68.7 44.3L84.5 42.2L97.3 39.1L105.9 36.0L109.5 34.1L108.0 34.6L102.2 38.2L93.3 45.5L82.8 56.0L72.4 69.0L63.3 82.9L56.5 96.2L52.4 106.9L50.7 113.5L50.7 115.1L51.4 111.1L51.7 102.0L50.6 88.8L47.7 73.1L43.0 56.9L36.9 42.1L30.5 30.2L25.1 22.4L22.1 19.1L22.6 20.1L27.4 24.5L36.4 31.1L49.1 38.5L64.2 45.3L80.1 50.5L94.8 53.7L106.5 55.0L113.8 55.0L115.7 54.5L112.1 54.8L103.5 56.8L91.3 61.1L77.0 67.8L62.6 76.5L49.7 86.3L39.6 95.6L33.2 103.1L30.6 107.1L31.2 106.8L34.1 101.4L38.0 91.3L41.8 77.4L44.5 61.1L45.6 44.4L44.9 29.1L43.1 17.2L41.2 9.8L40.1 7.7L41.1 10.7L45.0 18.1L52.1 28.6L62.2 40.6L74.3 52.3L87.1 62.4L98.9 69.8L108.1 74.3L113.0 76.0L112.9 75.6L107.4 74.3L97.0 73.0L82.8 72.9L66.4 74.4L49.9 77.7L35.2 82.3L23.8 87.2L16.8 91.1L14.7 92.9L17.0 91.4L23.0 86.0L31.1 76.7L40.0 64.1L48.3 49.4L54.8 34.4L59.0 20.8L61.1 10.5L61.5 4.8L61.2 4.6L61.3 9.9L62.7 20.0L66.1 33.5L71.7 48.8L79.1 63.9L87.4 77.2L95.2 87.2L101.1 93.2L103.6 95.1L101.9 93.4L95.5 89.3L84.7 83.9L70.4 78.6L54.2 74.4L37.8 71.9L23.4 71.2L12.6 71.9L6.6 73.0L6.1 73.4L10.8 72.2L19.8 68.4L31.8 61.7L45.1 52.4L57.9 41.4L68.7 29.9L76.5 19.6L81.0 12.1L82.4 8.7L81.4 10.4L79.1 17.3L76.7 28.8L75.2 43.8L75.3 60.6L77.1 77.1L80.2 91.4L83.7 102.0L86.4 107.9L87.2 108.7L85.0 104.8L79.2 97.3L69.9 87.5L57.6 77.2L43.7 67.6L29.7 60.0L17.5 55.0L8.7 52.4L4.7 51.9L6.2 52.3L13.0 52.8L24.5 52.2L39.2 49.8L55.3 45.5L70.8 39.5L84.1 32.8L93.7 26.6L99.0 22.2L99.9 20.9L97.0 23.7L91.4 30.9L84.5 42.2L77.7 56.6L72.0 72.5L68.2 88.1L66.4 101.4L66.1 110.9L66.6 115.3L66.8 114.2L65.5 107.9L62.1 97.3L56.2 83.9L47.9 69.5L38.2 55.9L28.2 44.6L19.4 36.7L13.5 32.5L11.8 31.7L14.8 33.6L22.9 37.0L35.3 40.8L50.8 43.7L67.6 45.1L83.8 44.8L97.4 43.1L107.0 40.9L111.5 39.2L110.8 39.1L105.3 41.7L96.2 47.6L84.9 56.6L73.2 68.2L62.5 81.1L54.1 93.8L48.5 104.6L45.7 111.7L45.3 114.0L46.3 111.0L47.5 102.7L47.9 90.0L46.8 74.4L43.9 57.8L39.5 42.2L34.3 29.2L29.5 20.2L26.5 15.9L26.4 16.2L30.0 20.6L37.7 27.7L49.2 36.2L63.3 44.5L78.6 51.6L93.2 56.6L105.3 59.3L113.2 60.2L116.0 60.0Z" fill="none" stroke="currentColor" stroke-width="0.42" opacity="0.55"/>
  <path d="M112.5 60.0L109.8 59.3L102.2 59.7L90.7 62.0L76.8 66.5L62.3 73.1L49.1 81.1L38.4 89.3L31.4 96.4L28.3 100.8L28.8 101.5L32.1 97.7L37.0 89.4L42.1 77.2L46.5 62.4L49.2 46.7L50.0 31.9L49.3 19.9L47.7 12.1L46.3 9.4L46.2 11.7L48.3 18.6L53.3 29.0L61.1 41.1L71.2 53.4L82.4 64.3L93.2 72.6L102.1 77.8L107.5 79.9L108.4 79.3L104.2 77.2L95.2 74.7L82.4 72.8L67.1 72.4L51.2 73.8L36.5 76.7L24.9 80.5L17.4 84.2L14.8 86.5L16.7 86.2L22.6 82.5L31.1 75.3L40.7 64.8L50.0 52.0L57.7 38.3L63.1 25.5L66.0 15.4L66.7 9.2L66.0 8.1L65.1 12.3L64.9 21.3L66.3 34.0L69.7 48.7L75.1 63.8L81.7 77.3L88.6 87.8L94.2 94.4L97.3 96.7L96.8 95.1L92.1 90.6L83.2 84.4L70.8 77.8L56.1 72.1L40.8 68.1L26.9 66.1L16.0 65.9L9.5 66.8L8.2 67.8L12.1 67.7L20.5 65.7L32.2 61.2L45.5 54.2L58.7 45.2L70.2 35.2L78.8 25.8L83.9 18.4L85.6 14.5L84.4 15.0L81.4 20.4L77.7 30.3L74.6 43.8L72.8 59.4L72.8 75.2L74.4 89.4L77.0 100.2L79.6 106.6L81.1 108.0L80.2 104.6L76.3 97.3L69.2 87.3L59.1 76.3L47.0 65.9L34.4 57.2L22.8 51.2L14.1 48.0L9.5 47.2L9.9 48.2L15.5 49.7L25.7 50.7L39.4 50.3L54.8 48.1L70.2 44.0L83.6 38.8L93.7 33.4L99.6 29.1L100.9 27.1L98.1 28.5L92.2 33.9L84.6 43.1L76.6 55.6L69.5 69.9L64.4 84.4L61.4 97.3L60.4 106.9L60.9 111.9L61.7 111.7L61.8 106.3L60.2 96.4L56.5 83.5L50.4 69.2L42.6 55.4L34.0 43.5L26.0 34.9L20.1 30.2L17.5 29.2L19.3 31.3L25.7 35.4L36.3 40.4L50.2 44.9L65.8 48.0L81.3 49.4L94.7 49.0L104.6 47.4L109.7 45.6L109.6 44.8L104.7 45.9L95.9 49.8L84.5 56.6L72.3 66.0L60.9 77.1L51.6 88.6L45.1 98.7L41.8 106.0L41.3 109.0L42.8 107.2L45.1 100.3L47.2 89.0L48.0 74.6L47.1 58.8L44.4 43.4L40.5 30.3L36.4 20.9L33.3 16.0L32.2 15.9L34.4 20.1L40.1 27.4L49.4 36.5L61.6 45.8L75.2 54.1L88.8 60.3L100.5 64.0L108.7 65.4L112.2 65.2L110.4 64.3L103.5 63.8L92.4 64.6L78.4 67.5L63.4 72.3L49.1 78.9L37.2 86.0L28.9 92.6L24.7 97.1L24.6 98.4L27.8 95.6L33.3 88.5L39.6 77.4L45.5 63.4L50.0 48.0L52.6 33.2L53.2 20.7L52.5 12.1L51.4 8.4L50.9 9.9L52.0 16.3L55.6 26.6L61.8 39.3L70.3 52.5L80.3 64.7L90.4 74.5L99.0 81.1L104.8 84.2L106.4 84.1L103.3 81.9L95.3 78.6L83.2 75.3L68.3 73.2L52.3 72.7L37.2 74.0L24.7 76.6L16.2 79.6L12.5 81.8L13.8 82.1L19.4 79.5L28.2 73.6L38.7 64.6L49.3 53.0L58.6 40.2L65.6 27.8L69.9 17.4L71.5 10.7L71.2 8.8L69.9 12.0L68.7 20.3L68.6 32.5L70.3 47.3L74.0 62.9L79.1 77.3L84.9 89.0L90.1 96.7L93.3 100.0L93.6 99.0L89.9 94.5L82.3 87.7L71.0 80.0L57.2 72.7L42.4 66.9L28.4 63.2L17.1 61.7L9.8 61.8L7.6 62.6L10.7 63.1L18.6 62.2L30.2 59.2L44.0 53.8L58.1 46.4L70.8 37.7L80.8 29.0L87.2 21.8L89.8 17.5L89.0 17.2L85.8 21.5L81.2 30.4L76.7 43.1L73.2 58.2L71.4 74.0L71.4 88.6L72.8 100.2L74.8 107.6L76.2 109.9L76.0 107.2L73.3 100.1L67.6 89.8L59.0 78.0L48.3 66.3L36.5 56.1L25.4 48.5L16.5 44.0L11.4 42.4L10.9 43.1L15.5 45.1L25.0 47.2L38.1 48.3L53.6 47.9L69.3 45.6L83.6 41.9L94.8 37.4L101.7 33.5L103.9 31.3L101.6 31.9L95.7 36.1L87.5 44.1L78.3 55.2L69.7 68.6L62.8 82.6L58.3 95.5L56.1 105.5L55.8 111.3L56.5 112.0L57.3 107.4L56.9 98.1L54.7 85.2L50.4 70.6L44.2 55.8L36.9 42.9L29.6 33.0L23.8 27.0L20.9 25.1L21.7 26.9L27.0 31.4L36.5 37.2L49.5 43.2L64.5 48.0L79.9 51.2L93.7 52.3L104.3 51.9L110.4 50.7L111.2 49.7L106.9 50.1L98.3 52.7L86.7 57.9L73.7 65.8L61.1 75.5L50.3 86.0L42.4 95.8L37.9 103.1L36.6 106.8L38.0 105.9L40.8 100.0L44.0 89.6L46.4 75.7L47.3 60.0L46.4 44.3L44.0 30.4L40.8 20.0L38.0 14.1L36.6 13.2L37.9 16.9L42.4 24.2L50.3 34.0L61.1 44.5L73.7 54.2L86.7 62.1L98.3 67.3L106.9 69.9L111.2 70.3L110.4 69.3L104.3 68.1L93.7 67.7L79.9 68.8L64.5 72.0L49.5 76.8L36.5 82.8L27.0 88.6L21.7 93.1L20.9 94.9L23.8 93.0L29.6 87.0L36.9 77.1L44.2 64.2L50.4 49.4L54.7 34.8L56.9 21.9L57.3 12.6L56.5 8.0L55.8 8.7L56.1 14.5L58.3 24.5L62.8 37.4L69.7 51.4L78.3 64.8L87.5 75.9L95.7 83.9L101.6 88.1L103.9 88.7L101.7 86.5L94.8 82.6L83.6 78.1L69.3 74.4L53.6 72.1L38.1 71.7L25.0 72.8L15.5 74.9L10.9 76.9L11.4 77.6L16.5 76.0L25.4 71.5L36.5 63.9L48.3 53.7L59.0 42.0L67.6 30.2L73.3 19.9L76.0 12.8L76.2 10.1L74.8 12.4L72.8 19.8L71.4 31.4L71.4 46.0L73.2 61.8L76.7 76.9L81.2 89.6L85.8 98.5L89.0 102.8L89.8 102.5L87.2 98.2L80.8 91.0L70.8 82.3L58.1 73.6L44.0 66.2L30.2 60.8L18.6 57.8L10.7 56.9L7.6 57.4L9.8 58.2L17.1 58.3L28.4 56.8L42.4 53.1L57.2 47.3L71.0 40.0L82.3 32.3L89.9 25.5L93.6 21.0L93.3 20.0L90.1 23.3L84.9 31.0L79.1 42.7L74.0 57.1L70.3 72.7L68.6 87.5L68.7 99.7L69.9 108.0L71.2 111.2L71.5 109.3L69.9 102.6L65.6 92.2L58.6 79.8L49.3 67.0L38.7 55.4L28.2 46.4L19.4 40.5L13.8 37.9L12.5 38.2L16.2 40.4L24.7 43.4L37.2 46.0L52.3 47.3L68.3 46.8L83.2 44.7L95.3 41.4L103.3 38.1L106.4 35.9L104.8 35.8L99.0 38.9L90.4 45.5L80.3 55.3L70.3 67.5L61.8 80.7L55.6 93.4L52.0 103.7L50.9 110.1L51.4 111.6L52.5 107.9L53.2 99.3L52.6 86.8L50.0 72.0L45.5 56.6L39.6 42.6L33.3 31.5L27.8 24.4L24.6 21.6L24.7 22.9L28.9 27.4L37.2 34.0L49.1 41.1L63.4 47.7L78.4 52.5L92.4 55.4L103.5 56.2L110.4 55.7L112.2 54.8L108.7 54.6L100.5 56.0L88.8 59.7L75.2 65.9L61.6 74.2L49.4 83.5L40.1 92.6L34.4 99.9L32.2 104.1L33.3 104.0L36.4 99.1L40.5 89.7L44.4 76.6L47.1 61.2L48.0 45.4L47.2 31.0L45.1 19.7L42.8 12.8L41.3 11.0L41.8 14.0L45.1 21.3L51.6 31.4L60.9 42.9L72.3 54.0L84.5 63.4L95.9 70.2L104.7 74.1L109.6 75.2L109.7 74.4L104.6 72.6L94.7 71.0L81.3 70.6L65.8 72.0L50.2 75.1L36.3 79.6L25.7 84.6L19.3 88.7L17.5 90.8L20.1 89.8L26.0 85.1L34.0 76.5L42.6 64.6L50.4 50.8L56.5 36.5L60.2 23.6L61.8 13.7L61.7 8.3L60.9 8.1L60.4 13.1L61.4 22.7L64.4 35.6L69.5 50.1L76.6 64.4L84.6 76.9L92.2 86.1L98.1 91.5L100.9 92.9L99.6 90.9L93.7 86.6L83.6 81.2L70.2 76.0L54.8 71.9L39.4 69.7L25.7 69.3L15.5 70.3L9.9 71.8L9.5 72.8L14.1 72.0L22.8 68.8L34.4 62.8L47.0 54.1L59.1 43.7L69.2 32.7L76.3 22.7L80.2 15.4L81.1 12.0L79.6 13.4L77.0 19.8L74.4 30.6L72.8 44.8L72.8 60.6L74.6 76.2L77.7 89.7L81.4 99.6L84.4 105.0L85.6 105.5L83.9 101.6L78.8 94.2L70.2 84.8L58.7 74.8L45.5 65.8L32.2 58.8L20.5 54.3L12.1 52.3L8.2 52.2L9.5 53.2L16.0 54.1L26.9 53.9L40.8 51.9L56.1 47.9L70.8 42.2L83.2 35.6L92.1 29.4L96.8 24.9L97.3 23.3L94.2 25.6L88.6 32.2L81.7 42.7L75.1 56.2L69.7 71.3L66.3 86.0L64.9 98.7L65.1 107.7L66.0 111.9L66.7 110.8L66.0 104.6L63.1 94.5L57.7 81.7L50.0 68.0L40.7 55.2L31.1 44.7L22.6 37.5L16.7 33.8L14.8 33.5L17.4 35.8L24.9 39.5L36.5 43.3L51.2 46.2L67.1 47.6L82.4 47.2L95.2 45.3L104.2 42.8L108.4 40.7L107.5 40.1L102.1 42.2L93.2 47.4L82.4 55.7L71.2 66.6L61.1 78.9L53.3 91.0L48.3 101.4L46.2 108.3L46.3 110.6L47.7 107.9L49.3 100.1L50.0 88.1L49.2 73.3L46.5 57.6L42.1 42.8L37.0 30.6L32.1 22.3L28.8 18.5L28.3 19.2L31.4 23.6L38.4 30.7L49.1 38.9L62.3 46.9L76.8 53.5L90.7 58.0L102.2 60.3L109.8 60.7L112.5 60.0Z" fill="none" stroke="currentColor" stroke-width="0.37" opacity="0.42"/>
  <path d="M108.7 60.0L106.2 58.9L99.0 58.9L88.2 60.7L75.1 64.8L61.5 70.9L49.1 78.5L39.3 86.4L32.9 93.3L30.3 97.7L31.2 98.6L34.6 95.3L39.5 87.7L44.6 76.3L48.8 62.5L51.3 47.8L51.9 34.0L50.9 22.7L49.0 15.5L47.3 13.0L46.8 15.3L48.4 22.0L52.8 31.8L60.0 43.3L69.4 54.8L79.9 64.9L90.2 72.6L98.7 77.1L104.0 78.7L105.0 77.8L101.2 75.4L92.9 72.7L80.9 70.6L66.5 70.1L51.6 71.4L37.9 74.3L27.1 78.2L20.3 82.0L17.9 84.5L20.0 84.6L25.8 81.5L34.0 75.0L43.2 65.3L51.9 53.3L59.1 40.5L63.9 28.4L66.3 18.8L66.5 12.9L65.5 11.8L64.1 15.7L63.6 24.1L64.6 36.1L67.7 50.0L72.8 64.0L79.1 76.6L85.7 86.3L91.3 92.3L94.6 94.2L94.4 92.4L90.3 87.8L82.1 81.7L70.5 75.3L56.8 69.9L42.5 66.2L29.4 64.6L19.2 64.7L13.1 65.9L12.0 67.3L15.7 67.7L23.7 66.2L34.8 62.2L47.3 55.8L59.7 47.3L70.3 37.9L78.2 28.9L82.7 21.7L83.9 17.8L82.4 18.1L79.2 22.9L75.4 32.1L72.2 44.7L70.5 59.3L70.5 74.2L72.3 87.4L75.0 97.5L77.9 103.4L79.6 104.5L79.2 101.2L75.9 94.1L69.4 84.6L60.1 74.2L48.8 64.4L36.9 56.4L26.0 50.9L17.6 48.2L13.2 48.0L13.4 49.3L18.6 51.1L28.2 52.4L41.0 52.3L55.5 50.3L69.9 46.5L82.4 41.4L91.7 36.0L97.0 31.6L97.9 29.4L95.0 30.4L89.2 35.2L81.8 43.7L74.2 55.2L67.6 68.6L62.8 82.3L60.3 94.4L59.8 103.5L60.6 108.2L61.8 108.0L62.3 102.8L61.2 93.6L57.9 81.4L52.3 67.9L45.0 55.0L36.8 44.0L29.1 36.1L23.2 32.0L20.6 31.4L22.0 33.7L27.8 37.9L37.6 42.9L50.6 47.3L65.2 50.3L79.7 51.4L92.3 50.8L101.5 49.0L106.2 46.9L106.0 45.7L101.3 46.4L92.8 49.6L82.0 55.8L70.5 64.5L59.8 75.0L51.2 85.8L45.4 95.5L42.7 102.5L42.6 105.5L44.4 103.9L47.0 97.6L49.2 87.1L50.2 73.6L49.4 58.7L46.8 44.3L43.0 32.1L38.8 23.4L35.4 19.0L34.1 19.2L35.7 23.3L40.8 30.4L49.4 39.1L60.7 48.0L73.5 55.7L86.3 61.4L97.3 64.6L105.1 65.6L108.4 64.9L106.8 63.6L100.3 62.7L89.9 63.2L76.7 65.6L62.6 70.2L49.3 76.3L38.3 83.3L30.7 89.7L27.0 94.2L27.3 95.8L30.6 93.4L36.0 86.9L42.2 76.6L47.8 63.6L52.1 49.2L54.3 35.3L54.7 23.6L53.6 15.5L52.1 12.0L51.2 13.6L51.9 19.7L54.9 29.5L60.5 41.4L68.4 53.9L77.8 65.3L87.4 74.3L95.8 80.2L101.4 82.7L103.2 82.3L100.4 79.8L93.0 76.3L81.7 73.0L67.8 70.9L52.8 70.5L38.7 71.8L27.0 74.5L19.1 77.6L15.9 80.1L17.2 80.8L22.7 78.7L31.2 73.5L41.1 65.2L51.1 54.4L59.8 42.3L66.2 30.6L69.9 20.8L71.1 14.4L70.3 12.4L68.7 15.4L67.2 23.1L66.8 34.6L68.3 48.5L71.6 63.1L76.6 76.5L82.2 87.4L87.4 94.4L90.8 97.3L91.4 96.0L88.3 91.5L81.3 84.8L70.8 77.4L58.0 70.5L44.1 65.1L30.9 61.9L20.2 60.8L13.4 61.2L11.3 62.5L14.3 63.3L21.8 62.9L32.7 60.4L45.7 55.5L58.9 48.6L70.8 40.3L80.0 32.0L85.7 25.0L87.8 20.7L86.7 20.1L83.3 24.0L78.7 32.1L74.3 43.9L70.9 58.1L69.2 72.9L69.4 86.6L71.0 97.5L73.3 104.3L75.1 106.3L75.3 103.6L73.1 96.8L68.0 87.0L60.1 75.8L50.1 64.8L39.0 55.4L28.5 48.5L20.0 44.6L14.9 43.5L14.4 44.5L18.6 46.8L27.4 49.1L39.7 50.4L54.1 50.1L68.9 48.0L82.3 44.3L92.6 39.9L99.0 35.8L100.8 33.4L98.4 33.6L92.6 37.2L84.6 44.4L75.9 54.8L67.8 67.3L61.5 80.5L57.4 92.6L55.7 102.1L55.8 107.6L57.0 108.3L58.1 104.0L58.1 95.2L56.3 83.1L52.4 69.3L46.6 55.6L39.5 43.5L32.5 34.4L26.8 29.0L23.7 27.6L24.2 29.6L28.9 34.1L37.7 39.9L49.8 45.6L63.9 50.2L78.3 53.1L91.3 54.0L101.2 53.2L106.8 51.7L107.5 50.3L103.4 50.2L95.2 52.3L84.2 57.0L71.9 64.2L60.1 73.4L50.1 83.3L42.9 92.6L39.0 99.8L38.2 103.4L39.9 102.7L42.9 97.4L46.2 87.7L48.7 74.7L49.6 60.0L48.7 45.3L46.2 32.3L42.9 22.6L39.9 17.3L38.2 16.6L39.0 20.2L42.9 27.4L50.1 36.7L60.1 46.6L71.9 55.8L84.2 63.0L95.2 67.7L103.4 69.8L107.5 69.7L106.8 68.3L101.2 66.8L91.3 66.0L78.3 66.9L63.9 69.8L49.8 74.4L37.7 80.1L28.9 85.9L24.2 90.4L23.7 92.4L26.8 91.0L32.5 85.6L39.5 76.5L46.6 64.4L52.4 50.7L56.3 36.9L58.1 24.8L58.1 16.0L57.0 11.7L55.8 12.4L55.7 17.9L57.4 27.4L61.5 39.5L67.8 52.7L75.9 65.2L84.6 75.6L92.6 82.8L98.4 86.4L100.8 86.6L99.0 84.2L92.6 80.1L82.3 75.7L68.9 72.0L54.1 69.9L39.7 69.6L27.4 70.9L18.6 73.2L14.4 75.5L14.9 76.5L20.0 75.4L28.5 71.5L39.0 64.6L50.1 55.2L60.1 44.2L68.0 33.0L73.1 23.2L75.3 16.4L75.1 13.7L73.3 15.7L71.0 22.5L69.4 33.4L69.2 47.1L70.9 61.9L74.3 76.1L78.7 87.9L83.3 96.0L86.7 99.9L87.8 99.3L85.7 95.0L80.0 88.0L70.8 79.7L58.9 71.4L45.7 64.5L32.7 59.6L21.8 57.1L14.3 56.7L11.3 57.5L13.4 58.8L20.2 59.2L30.9 58.1L44.1 54.9L58.0 49.5L70.8 42.6L81.3 35.2L88.3 28.5L91.4 24.0L90.8 22.7L87.4 25.6L82.2 32.6L76.6 43.5L71.6 56.9L68.3 71.5L66.8 85.4L67.2 96.9L68.7 104.6L70.3 107.6L71.1 105.6L69.9 99.2L66.2 89.4L59.8 77.7L51.1 65.6L41.1 54.8L31.2 46.5L22.7 41.3L17.2 39.2L15.9 39.9L19.1 42.4L27.0 45.5L38.7 48.2L52.8 49.5L67.8 49.1L81.7 47.0L93.0 43.7L100.4 40.2L103.2 37.7L101.4 37.3L95.8 39.8L87.4 45.7L77.8 54.7L68.4 66.1L60.5 78.6L54.9 90.5L51.9 100.3L51.2 106.4L52.1 108.0L53.6 104.5L54.7 96.4L54.3 84.7L52.1 70.8L47.8 56.4L42.2 43.4L36.0 33.1L30.6 26.6L27.3 24.2L27.0 25.8L30.7 30.3L38.3 36.7L49.3 43.7L62.6 49.8L76.7 54.4L89.9 56.8L100.3 57.3L106.8 56.4L108.4 55.1L105.1 54.4L97.3 55.4L86.3 58.6L73.5 64.3L60.7 72.0L49.4 80.9L40.8 89.6L35.7 96.7L34.1 100.8L35.4 101.0L38.8 96.6L43.0 87.9L46.8 75.7L49.4 61.3L50.2 46.4L49.2 32.9L47.0 22.4L44.4 16.1L42.6 14.5L42.7 17.5L45.4 24.5L51.2 34.2L59.8 45.0L70.5 55.5L82.0 64.2L92.8 70.4L101.3 73.6L106.0 74.3L106.2 73.1L101.5 71.0L92.3 69.2L79.7 68.6L65.2 69.7L50.6 72.7L37.6 77.1L27.8 82.1L22.0 86.3L20.6 88.6L23.2 88.0L29.1 83.9L36.8 76.0L45.0 65.0L52.3 52.1L57.9 38.6L61.2 26.4L62.3 17.2L61.8 12.0L60.6 11.8L59.8 16.5L60.3 25.6L62.8 37.7L67.6 51.4L74.2 64.8L81.8 76.3L89.2 84.8L95.0 89.6L97.9 90.6L97.0 88.4L91.7 84.0L82.4 78.6L69.9 73.5L55.5 69.7L41.0 67.7L28.2 67.6L18.6 68.9L13.4 70.7L13.2 72.0L17.6 71.8L26.0 69.1L36.9 63.6L48.8 55.6L60.1 45.8L69.4 35.4L75.9 25.9L79.2 18.8L79.6 15.5L77.9 16.6L75.0 22.5L72.3 32.6L70.5 45.8L70.5 60.7L72.2 75.3L75.4 87.9L79.2 97.1L82.4 101.9L83.9 102.2L82.7 98.3L78.2 91.1L70.3 82.1L59.7 72.7L47.3 64.2L34.8 57.8L23.7 53.8L15.7 52.3L12.0 52.7L13.1 54.1L19.2 55.3L29.4 55.4L42.5 53.8L56.8 50.1L70.5 44.7L82.1 38.3L90.3 32.2L94.4 27.6L94.6 25.8L91.3 27.7L85.7 33.7L79.1 43.4L72.8 56.0L67.7 70.0L64.6 83.9L63.6 95.9L64.1 104.3L65.5 108.2L66.5 107.1L66.3 101.2L63.9 91.6L59.1 79.5L51.9 66.7L43.2 54.7L34.0 45.0L25.8 38.5L20.0 35.4L17.9 35.5L20.3 38.0L27.1 41.8L37.9 45.7L51.6 48.6L66.5 49.9L80.9 49.4L92.9 47.3L101.2 44.6L105.0 42.2L104.0 41.3L98.7 42.9L90.2 47.4L79.9 55.1L69.4 65.2L60.0 76.7L52.8 88.2L48.4 98.0L46.8 104.7L47.3 107.0L49.0 104.5L50.9 97.3L51.9 86.0L51.3 72.2L48.8 57.5L44.6 43.7L39.5 32.3L34.6 24.7L31.2 21.4L30.3 22.3L32.9 26.7L39.3 33.6L49.1 41.5L61.5 49.1L75.1 55.2L88.2 59.3L99.0 61.1L106.2 61.1L108.7 60.0Z" fill="none" stroke="currentColor" stroke-width="0.32" opacity="0.29"/>
  <circle cx="60.0" cy="60.0" r="37" fill="var(--raised, #fff)"/>
  <circle cx="60.0" cy="60.0" r="37" fill="none" stroke="currentColor" stroke-width="0.7" opacity=".5"/>
  <g transform="translate(36.48 71.32) scale(0.0324)"><path d="M363 12Q288 12 230 -16Q173 -43 133 -92Q93 -140 72 -206Q52 -272 52 -348Q52 -436 76 -504Q101 -572 142 -618Q183 -663 238 -686Q292 -710 351 -710Q383 -710 408 -704Q432 -697 450 -687Q468 -677 480 -664Q492 -652 498 -640H504V-698H620V-476H504V-521Q504 -572 470 -603Q437 -634 373 -634Q306 -634 268 -592Q230 -550 230 -460V-257Q230 -210 242 -177Q254 -144 276 -122Q297 -100 326 -90Q356 -80 391 -80Q455 -80 500 -114Q544 -147 567 -204L624 -171Q611 -133 587 -100Q563 -66 530 -41Q496 -16 454 -2Q412 12 363 12Z M736 -66H806V-632H736V-698H1062Q1134 -698 1196 -674Q1257 -651 1302 -606Q1347 -562 1372 -497Q1398 -432 1398 -349Q1398 -266 1372 -201Q1347 -136 1302 -92Q1257 -47 1196 -24Q1134 0 1062 0H736ZM968 -72H1033Q1083 -72 1118 -82Q1154 -92 1176 -114Q1199 -135 1210 -170Q1220 -206 1220 -257V-441Q1220 -492 1210 -528Q1199 -563 1176 -584Q1154 -606 1118 -616Q1083 -626 1033 -626H968Z"/></g>
</svg>
